<svg width="54" height="70" viewBox="0 0 54 70" fill="none" xmlns="http://www.w3.org/2000/svg">
<g filter="url(#filter0_d_539_5581)">
<path d="M26.9997 6.33331C22.049 6.33331 17.301 8.29997 13.8003 11.8007C10.2997 15.3013 8.33301 20.0493 8.33301 25C8.33301 39 26.9997 59.6666 26.9997 59.6666C26.9997 59.6666 45.6663 39 45.6663 25C45.6663 20.0493 43.6997 15.3013 40.199 11.8007C36.6983 8.29997 31.9504 6.33331 26.9997 6.33331Z" fill="url(#paint0_linear_539_5581)"/>
<path d="M30.8157 17.1258C30.7378 19.1931 30.003 21.3352 28.7018 23.5418C28.5866 23.7356 28.4571 23.9294 28.3602 24.1338C28.2455 24.3708 28.1927 24.584 28.2303 24.7481C28.2607 24.8769 28.3575 24.9867 28.5399 25.0661C28.7949 25.1824 29.0707 25.1824 29.3461 25.2018C31.4423 25.348 33.538 25.201 35.443 24.6144C36.6478 24.0809 37.7359 23.3059 38.6314 22.2208C38.2644 20.8401 37.6318 19.5023 36.7203 18.2786C35.0984 16.1 32.8465 14.6418 30.3868 13.9389C30.7173 14.9788 30.8568 16.0419 30.8157 17.1258Z" fill="white"/>
<path d="M36.0213 26.2138C33.9811 26.7784 31.6657 26.7609 29.1125 26.2339C28.8861 26.188 28.66 26.1279 28.4298 26.0998C28.1616 26.0675 27.9389 26.085 27.7908 26.172C27.6753 26.2374 27.6 26.3616 27.5753 26.5565C27.5423 26.8274 27.6259 27.0839 27.6931 27.346C28.1969 29.3335 28.986 31.2297 30.1448 32.8144C31.0377 33.7696 32.1315 34.5416 33.47 35.0382C34.701 34.2711 35.8108 33.2711 36.7223 32.0485C38.3442 29.8692 39.0695 27.3297 38.9951 24.8308C38.0836 25.4585 37.0908 25.9167 36.0213 26.2138Z" fill="white"/>
<path d="M25.8235 26.1213C25.5481 26.1741 25.3247 26.3303 25.0899 26.4727C23.3065 27.5571 21.7005 28.8762 20.512 30.4431C19.8589 31.565 19.4452 32.8161 19.3745 34.209C20.5037 35.1167 21.8217 35.8351 23.2962 36.3024C25.92 37.1353 28.621 37.0239 31.0336 36.1824C30.1404 35.5304 29.3873 34.7504 28.7669 33.8496C27.5849 32.1319 26.8878 29.978 26.6115 27.4476C26.5868 27.2223 26.5758 26.9948 26.5314 26.7717C26.4808 26.5138 26.3953 26.3128 26.265 26.2015C26.1928 26.1391 26.0986 26.1046 25.9786 26.1046C25.9311 26.1046 25.8794 26.1099 25.8235 26.1213Z" fill="white"/>
<path d="M15.8283 20.8791C15.2933 22.2051 15 23.65 15 25.1621C15 27.8559 15.943 30.3259 17.5091 32.3046C17.8685 31.2738 18.3959 30.3342 19.0824 29.4805C20.3913 27.8525 22.2754 26.5413 24.6584 25.5033C24.87 25.411 25.0881 25.3293 25.2917 25.2199C25.528 25.093 25.6971 24.9536 25.7659 24.7959C25.8194 24.6754 25.8058 24.5334 25.7077 24.3612C25.571 24.1223 25.3495 23.9638 25.1375 23.7906C23.5326 22.4718 21.7522 21.3901 19.8613 20.7712C19.2693 20.6523 18.6664 20.5881 18.0547 20.5881C17.3241 20.5881 16.5809 20.6797 15.8283 20.8791Z" fill="white"/>
<path d="M23.2979 14.0233C20.6725 14.8558 18.5544 16.494 17.1099 18.5586C18.2257 18.5734 19.3048 18.7729 20.3488 19.1456C22.3404 19.8576 24.2025 21.1992 25.9502 23.089C26.1052 23.2554 26.253 23.4355 26.4229 23.5893C26.62 23.7698 26.8096 23.8838 26.9829 23.899C27.1151 23.9096 27.2523 23.8545 27.3879 23.7102C27.579 23.5092 27.6652 23.2535 27.769 23.0031C28.5585 21.1049 29.063 19.1164 29.0809 17.1684C28.9335 15.8858 28.514 14.6358 27.7321 13.4686C27.4916 13.4542 27.25 13.4469 27.0076 13.4469C25.7785 13.4469 24.53 13.6335 23.2979 14.0233Z" fill="white"/>
</g>
<defs>
<filter id="filter0_d_539_5581" x="-1" y="-1" width="56" height="72" filterUnits="userSpaceOnUse" color-interpolation-filters="sRGB">
<feFlood flood-opacity="0" result="BackgroundImageFix"/>
<feColorMatrix in="SourceAlpha" type="matrix" values="0 0 0 0 0 0 0 0 0 0 0 0 0 0 0 0 0 0 127 0" result="hardAlpha"/>
<feOffset dy="2"/>
<feGaussianBlur stdDeviation="4"/>
<feComposite in2="hardAlpha" operator="out"/>
<feColorMatrix type="matrix" values="0 0 0 0 0.260242 0 0 0 0 0.258958 0 0 0 0 0.275 0 0 0 0.12 0"/>
<feBlend mode="normal" in2="BackgroundImageFix" result="effect1_dropShadow_539_5581"/>
<feBlend mode="normal" in="SourceGraphic" in2="effect1_dropShadow_539_5581" result="shape"/>
</filter>
<linearGradient id="paint0_linear_539_5581" x1="11.8284" y1="6.3333" x2="47.5272" y2="7.6094" gradientUnits="userSpaceOnUse">
<stop stop-color="#EF8F41"/>
<stop offset="1" stop-color="#C2295D"/>
</linearGradient>
</defs>
</svg>
