<svg width="456" height="96" viewBox="0 0 456 96" fill="none" xmlns="http://www.w3.org/2000/svg">
<path d="M97.5272 28.5V36.2991H109.288V66.9592H118.175V36.2991H129.883V28.5H97.5272ZM73.8968 28.5L62.6768 43.776H60.6737V28.5H51.7847V66.9592H60.6737V51.8455H63.4906L75.2528 66.9592H85.1698L70.1038 47.0779L83.9221 28.5H73.8968ZM260.363 39.1972C258.467 40.0105 256.868 41.0931 255.567 42.4473C254.267 43.8014 253.282 45.3729 252.614 47.1607C251.944 48.9474 251.611 50.8158 251.611 52.767C251.611 54.717 251.944 56.5854 252.614 58.3722C253.282 60.16 254.267 61.7315 255.567 63.0856C256.868 64.4397 258.467 65.5146 260.363 66.3081C262.26 67.1016 264.419 67.5 266.84 67.5C269.261 67.5 271.42 67.1016 273.317 66.3081C275.215 65.5146 276.813 64.4397 278.112 63.0856C279.413 61.7315 280.398 60.16 281.067 58.3722C281.735 56.5854 282.07 54.717 282.07 52.767C282.07 50.8158 281.727 48.9474 281.041 47.1607C280.354 45.3729 279.36 43.8014 278.061 42.4473C276.759 41.0931 275.169 40.0105 273.29 39.1972C271.411 38.3849 269.261 37.9788 266.84 37.9788C264.419 37.9788 262.26 38.3849 260.363 39.1972ZM262.289 58.1559C261.096 56.8017 260.5 55.0051 260.5 52.767C260.5 51.6832 260.662 50.6812 260.987 49.7597C261.313 48.8393 261.753 48.0546 262.314 47.4046C262.875 46.7535 263.542 46.2481 264.32 45.8861C265.097 45.5263 265.936 45.3453 266.84 45.3453C268.648 45.3453 270.147 46.0218 271.339 47.377C272.531 48.7311 273.128 50.5278 273.128 52.767C273.128 53.8496 272.965 54.8517 272.639 55.7732C272.314 56.6936 271.871 57.4793 271.311 58.1294C270.751 58.7794 270.092 59.2848 269.333 59.6468C268.574 60.0077 267.744 60.1876 266.84 60.1876C264.998 60.1876 263.48 59.51 262.289 58.1559ZM198.363 39.1707C196.465 39.9653 194.867 41.049 193.566 42.4208C192.264 43.7936 191.271 45.3905 190.586 47.2137C189.899 49.039 189.555 50.9792 189.555 53.0374C189.555 54.951 189.899 56.7841 190.586 58.5355C191.271 60.2869 192.274 61.8308 193.593 63.1673C194.911 64.5037 196.52 65.5588 198.416 66.3357C200.314 67.1104 202.453 67.5 204.839 67.5C208.127 67.5 210.946 66.7948 213.294 65.3866C215.642 63.9795 217.377 62.1553 218.496 59.9161L211.126 57.8579C210.729 58.9063 209.943 59.7362 208.768 60.3498C207.593 60.9645 206.373 61.2702 205.11 61.2702C203.519 61.2702 202.103 60.7747 200.855 59.7814C199.609 58.7882 198.913 57.3348 198.768 55.42H219.797C219.869 55.0603 219.924 54.6343 219.961 54.1476C219.996 53.6598 220.014 53.1632 220.014 52.6588C220.014 50.7077 219.68 48.8492 219.011 47.0779C218.343 45.31 217.358 43.7473 216.057 42.3932C214.756 41.0402 213.166 39.9653 211.288 39.1707C209.41 38.3761 207.259 37.9788 204.839 37.9788C202.419 37.9788 200.258 38.3761 198.363 39.1707ZM200.531 45.8055C201.633 44.7405 203.032 44.2086 204.731 44.2086C206.392 44.2086 207.784 44.7317 208.904 45.7779C210.024 46.8263 210.673 48.2533 210.855 50.0577H198.606C198.787 48.2897 199.429 46.8727 200.531 45.8055ZM134.516 39.1707C132.618 39.9653 131.021 41.049 129.72 42.4208C128.419 43.7936 127.424 45.3905 126.738 47.2137C126.052 49.039 125.709 50.9792 125.709 53.0374C125.709 54.951 126.052 56.7841 126.738 58.5355C127.424 60.2869 128.427 61.8308 129.747 63.1673C131.065 64.5037 132.674 65.5588 134.571 66.3357C136.467 67.1104 138.609 67.5 140.993 67.5C144.281 67.5 147.098 66.7948 149.448 65.3866C151.797 63.9795 153.53 62.1553 154.651 59.9161L147.28 57.8579C146.882 58.9063 146.096 59.7362 144.922 60.3498C143.749 60.9645 142.529 61.2702 141.263 61.2702C139.673 61.2702 138.256 60.7747 137.01 59.7814C135.763 58.7882 135.068 57.3348 134.923 55.42H155.952C156.024 55.0603 156.078 54.6343 156.114 54.1476C156.15 53.6598 156.168 53.1632 156.168 52.6588C156.168 50.7077 155.834 48.8492 155.167 47.0779C154.496 45.31 153.514 43.7473 152.213 42.3932C150.911 41.0402 149.322 39.9653 147.443 39.1707C145.563 38.3761 143.412 37.9788 140.993 37.9788C138.571 37.9788 136.414 38.3761 134.516 39.1707ZM136.683 45.8055C137.785 44.7405 139.186 44.2086 140.885 44.2086C142.545 44.2086 143.937 44.7317 145.059 45.7779C146.177 46.8263 146.828 48.2533 147.009 50.0577H134.761C134.941 48.2897 135.581 46.8727 136.683 45.8055ZM310.957 38.5218L303.207 52.0077L295.456 38.5218H286.459V66.9592H294.698V51.521L301.256 62.8417H305.104L311.661 51.521V66.9592H319.9V38.5218H310.957ZM241.801 38.5218L233.618 49.1902H232.643V38.5218H224.078V66.9592H232.643V56.8282H233.78L242.017 66.9592H251.991L239.958 52.2792L251.07 38.5218H241.801ZM163.973 38.5218L162.999 47.7831C162.709 50.2398 162.428 52.2163 162.158 53.715C161.886 55.2126 161.543 56.3879 161.127 57.2355C160.712 58.0841 160.187 58.6624 159.555 58.9692C158.923 59.2749 158.118 59.4482 157.143 59.4824L157.36 67.1755C159.638 67.138 161.543 66.8312 163.077 66.2529C164.613 65.6769 165.897 64.7024 166.928 63.3284C167.957 61.9577 168.787 60.1258 169.419 57.8314C170.052 55.537 170.604 52.6401 171.074 49.1384L171.507 45.9412H176.548V66.9592H185.218V38.5218H163.973Z" fill="url(#paint0_linear_1737_9930)"/>
<path d="M379.274 24.6794C379.053 30.68 376.971 36.8978 373.284 43.3031C372.958 43.8655 372.591 44.428 372.316 45.0213C371.991 45.7095 371.842 46.3282 371.948 46.8046C372.034 47.1785 372.309 47.4972 372.825 47.7277C373.548 48.0652 374.329 48.0652 375.11 48.1214C381.049 48.546 386.987 48.1192 392.384 46.4164C395.798 44.868 398.881 42.6182 401.418 39.4685C400.378 35.4608 398.586 31.5777 396.003 28.0255C391.408 21.7018 385.027 17.4691 378.058 15.4288C378.995 18.4473 379.39 21.5331 379.274 24.6794Z" fill="url(#paint1_linear_1737_9930)"/>
<path d="M394.023 51.0588C388.243 52.6976 381.682 52.6469 374.448 51.1172C373.807 50.9838 373.166 50.8096 372.514 50.7279C371.754 50.6342 371.123 50.6849 370.703 50.9375C370.376 51.1272 370.163 51.4878 370.093 52.0536C369.999 52.8399 370.236 53.5843 370.427 54.3453C371.854 60.1142 374.09 65.6185 377.373 70.2184C379.903 72.991 383.002 75.2319 386.795 76.6733C390.283 74.4467 393.427 71.544 396.009 67.9951C400.605 61.6692 402.66 54.2978 402.449 47.0445C399.867 48.8664 397.054 50.1964 394.023 51.0588Z" fill="url(#paint2_linear_1737_9930)"/>
<path d="M365.133 50.7905C364.352 50.9438 363.719 51.397 363.054 51.8106C358.001 54.9581 353.451 58.7871 350.083 63.3353C348.233 66.5919 347.061 70.2236 346.86 74.2666C350.06 76.9013 353.794 78.9867 357.972 80.3432C365.406 82.7607 373.059 82.4375 379.895 79.9947C377.364 78.1023 375.23 75.8381 373.472 73.2233C370.123 68.2374 368.148 61.9854 367.365 54.6405C367.295 53.9865 367.264 53.3259 367.138 52.6785C366.995 51.9297 366.753 51.3463 366.384 51.0232C366.179 50.8423 365.912 50.7419 365.572 50.7419C365.437 50.7419 365.291 50.7574 365.133 50.7905Z" fill="url(#paint3_linear_1737_9930)"/>
<path d="M336.811 35.5737C335.295 39.4226 334.464 43.6167 334.464 48.006C334.464 55.8251 337.136 62.9947 341.573 68.7383C342.591 65.7463 344.086 63.019 346.031 60.5409C349.739 55.8152 355.078 52.0093 361.829 48.9964C362.429 48.7284 363.047 48.4913 363.624 48.1737C364.293 47.8053 364.773 47.4005 364.967 46.9429C365.119 46.5933 365.08 46.1808 364.803 45.6812C364.415 44.9875 363.788 44.5277 363.187 44.0248C358.64 40.1968 353.595 37.057 348.238 35.2605C346.56 34.9153 344.852 34.7289 343.119 34.7289C341.049 34.7289 338.943 34.9947 336.811 35.5737Z" fill="url(#paint4_linear_1737_9930)"/>
<path d="M357.975 15.6732C350.536 18.0895 344.535 22.845 340.442 28.8378C343.604 28.8808 346.661 29.4598 349.619 30.5417C355.262 32.6084 360.538 36.5025 365.49 41.988C365.929 42.4711 366.348 42.9938 366.829 43.4405C367.388 43.9643 367.925 44.2952 368.416 44.3393C368.79 44.3702 369.179 44.2103 369.563 43.7912C370.105 43.2078 370.349 42.4656 370.643 41.7388C372.88 36.229 374.309 30.4568 374.36 24.8025C373.942 21.0793 372.754 17.451 370.538 14.0631C369.857 14.0212 369.172 14.0002 368.486 14.0002C365.003 14.0002 361.466 14.5417 357.975 15.6732Z" fill="url(#paint5_linear_1737_9930)"/>
<defs>
<linearGradient id="paint0_linear_1737_9930" x1="351.906" y1="22.6769" x2="55.7875" y2="67.3995" gradientUnits="userSpaceOnUse">
<stop stop-color="#F3F02C"/>
<stop offset="0.00938444" stop-color="#F3F02C"/>
<stop offset="0.096197" stop-color="#EE5333"/>
<stop offset="0.84079" stop-color="#C6135E"/>
<stop offset="1" stop-color="#C6135E"/>
</linearGradient>
<linearGradient id="paint1_linear_1737_9930" x1="288.944" y1="73.5752" x2="419.162" y2="18.61" gradientUnits="userSpaceOnUse">
<stop stop-color="#F3F02C"/>
<stop offset="0.0564223" stop-color="#F3F02C"/>
<stop offset="0.578368" stop-color="#EE5333"/>
<stop offset="0.84079" stop-color="#C6135E"/>
<stop offset="1" stop-color="#C6135E"/>
</linearGradient>
<linearGradient id="paint2_linear_1737_9930" x1="299.62" y1="98.8554" x2="429.838" y2="43.8902" gradientUnits="userSpaceOnUse">
<stop stop-color="#F3F02C"/>
<stop offset="0.0564223" stop-color="#F3F02C"/>
<stop offset="0.578368" stop-color="#EE5333"/>
<stop offset="0.84079" stop-color="#C6135E"/>
<stop offset="1" stop-color="#C6135E"/>
</linearGradient>
<linearGradient id="paint3_linear_1737_9930" x1="299.187" y1="97.8344" x2="429.404" y2="42.8693" gradientUnits="userSpaceOnUse">
<stop stop-color="#F3F02C"/>
<stop offset="0.0564223" stop-color="#F3F02C"/>
<stop offset="0.578368" stop-color="#EE5333"/>
<stop offset="0.84079" stop-color="#C6135E"/>
<stop offset="1" stop-color="#C6135E"/>
</linearGradient>
<linearGradient id="paint4_linear_1737_9930" x1="289.246" y1="74.2827" x2="419.464" y2="19.3175" gradientUnits="userSpaceOnUse">
<stop stop-color="#F3F02C"/>
<stop offset="0.0564223" stop-color="#F3F02C"/>
<stop offset="0.578368" stop-color="#EE5333"/>
<stop offset="0.84079" stop-color="#C6135E"/>
<stop offset="1" stop-color="#C6135E"/>
</linearGradient>
<linearGradient id="paint5_linear_1737_9930" x1="285.145" y1="64.5583" x2="415.363" y2="9.59313" gradientUnits="userSpaceOnUse">
<stop stop-color="#F3F02C"/>
<stop offset="0.0564223" stop-color="#F3F02C"/>
<stop offset="0.578368" stop-color="#EE5333"/>
<stop offset="0.84079" stop-color="#C6135E"/>
<stop offset="1" stop-color="#C6135E"/>
</linearGradient>
</defs>
</svg>
