<svg width="54" height="70" viewBox="0 0 54 70" fill="none" xmlns="http://www.w3.org/2000/svg">
<g filter="url(#filter0_d_533_4256)">
<path d="M26.9997 6.33331C22.049 6.33331 17.301 8.29997 13.8003 11.8007C10.2997 15.3013 8.33301 20.0493 8.33301 25C8.33301 39 26.9997 59.6666 26.9997 59.6666C26.9997 59.6666 45.6663 39 45.6663 25C45.6663 20.0493 43.6997 15.3013 40.199 11.8007C36.6983 8.29997 31.9504 6.33331 26.9997 6.33331Z" fill="#C8235A"/>
<path d="M19.03 25.03L21.03 28.5L18.5 31.68L15 25.62L19.03 25.03ZM30 31V28.29C30.88 27.9 31.5 27.03 31.5 26C31.5 25.43 31.3 24.9 30.97 24.5L32.94 23.35C33.95 22.76 34.3 21.47 33.71 20.46L32.33 18.06C32.0486 17.575 31.587 17.2209 31.0456 17.0748C30.5043 16.9287 29.9272 17.0024 29.44 17.28L21.31 22C20.36 22.53 20.03 23.75 20.58 24.71L22.08 27.31C22.63 28.26 23.86 28.59 24.81 28.04L26.69 26.96C26.94 27.55 27.41 28.03 28 28.29V31C28 32.1 28.9 33 30 33H35V31H30Z" fill="white"/>
</g>
<defs>
<filter id="filter0_d_533_4256" x="-1" y="-1" width="56" height="72" filterUnits="userSpaceOnUse" color-interpolation-filters="sRGB">
<feFlood flood-opacity="0" result="BackgroundImageFix"/>
<feColorMatrix in="SourceAlpha" type="matrix" values="0 0 0 0 0 0 0 0 0 0 0 0 0 0 0 0 0 0 127 0" result="hardAlpha"/>
<feOffset dy="2"/>
<feGaussianBlur stdDeviation="4"/>
<feComposite in2="hardAlpha" operator="out"/>
<feColorMatrix type="matrix" values="0 0 0 0 0.260242 0 0 0 0 0.258958 0 0 0 0 0.275 0 0 0 0.12 0"/>
<feBlend mode="normal" in2="BackgroundImageFix" result="effect1_dropShadow_533_4256"/>
<feBlend mode="normal" in="SourceGraphic" in2="effect1_dropShadow_533_4256" result="shape"/>
</filter>
</defs>
</svg>
